<?xml version="1.0" encoding="UTF-8" standalone="no"?>
<!DOCTYPE svg PUBLIC "-//W3C//DTD SVG 1.1//EN"
 "http://www.w3.org/Graphics/SVG/1.1/DTD/svg11.dtd">
<!-- Generated by graphviz version 2.40.1 (20161225.0304)
 -->
<!-- Title: dependencies Pages: 1 -->
<svg width="881pt" height="284pt"
 viewBox="0.00 0.00 881.00 284.00" xmlns="http://www.w3.org/2000/svg" xmlns:xlink="http://www.w3.org/1999/xlink">
<g id="graph0" class="graph" transform="scale(1 1) rotate(0) translate(4 280)">
<title>dependencies</title>
<polygon fill="#ffffff" stroke="transparent" points="-4,4 -4,-280 877,-280 877,4 -4,4"/>
<text text-anchor="start" x="415.5091" y="-42.4" font-family="sans-serif" font-weight="bold" font-size="14.00" fill="#000000">Legend</text>
<polygon fill="#ffffb3" stroke="transparent" points="202.5,-10 202.5,-30 222.5,-30 222.5,-10 202.5,-10"/>
<text text-anchor="start" x="226.129" y="-15.4" font-family="sans-serif" font-size="14.00" fill="#000000"> &#160;Declarations</text>
<polygon fill="#8dd3c7" stroke="transparent" points="315.5,-10 315.5,-30 335.5,-30 335.5,-10 315.5,-10"/>
<text text-anchor="start" x="339.2251" y="-15.4" font-family="sans-serif" font-size="14.00" fill="#000000"> &#160;Module</text>
<polygon fill="#80b1d3" stroke="transparent" points="401.5,-10 401.5,-30 421.5,-30 421.5,-10 401.5,-10"/>
<text text-anchor="start" x="425.2812" y="-15.4" font-family="sans-serif" font-size="14.00" fill="#000000"> &#160;Bootstrap</text>
<polygon fill="#fdb462" stroke="transparent" points="498.5,-10 498.5,-30 518.5,-30 518.5,-10 498.5,-10"/>
<text text-anchor="start" x="522.1732" y="-15.4" font-family="sans-serif" font-size="14.00" fill="#000000"> &#160;Providers</text>
<polygon fill="#fb8072" stroke="transparent" points="594.5,-10 594.5,-30 614.5,-30 614.5,-10 594.5,-10"/>
<text text-anchor="start" x="618.2258" y="-15.4" font-family="sans-serif" font-size="14.00" fill="#000000"> &#160;Exports</text>
<g id="clust1" class="cluster">
<title>cluster_AppModule</title>
<polygon fill="none" stroke="#000000" stroke-dasharray="1,5" points="8,-70 8,-268 865,-268 865,-70 8,-70"/>
</g>
<g id="clust2" class="cluster">
<title>cluster_AppModule_declarations</title>
<polygon fill="none" stroke="#000000" points="735,-78 735,-130 857,-130 857,-78 735,-78"/>
</g>
<g id="clust4" class="cluster">
<title>cluster_AppModule_imports</title>
<polygon fill="none" stroke="#000000" points="16,-78 16,-130 727,-130 727,-78 16,-78"/>
</g>
<g id="clust6" class="cluster">
<title>cluster_AppModule_bootstrap</title>
<polygon fill="none" stroke="#000000" points="396,-208 396,-260 520,-260 520,-208 396,-208"/>
</g>
<!-- AppComponent -->
<g id="node1" class="node">
<title>AppComponent</title>
<polygon fill="#ffffb3" stroke="#000000" points="848.9399,-122 743.0601,-122 743.0601,-86 848.9399,-86 848.9399,-122"/>
<text text-anchor="middle" x="796" y="-99.8" font-family="Times,serif" font-size="14.00" fill="#000000">AppComponent</text>
</g>
<!-- AppModule -->
<g id="node2" class="node">
<title>AppModule</title>
<polygon fill="#8dd3c7" stroke="#000000" points="499.6571,-187 496.6571,-191 475.6571,-191 472.6571,-187 416.3429,-187 416.3429,-151 499.6571,-151 499.6571,-187"/>
<text text-anchor="middle" x="458" y="-164.8" font-family="Times,serif" font-size="14.00" fill="#000000">AppModule</text>
</g>
<!-- AppComponent&#45;&gt;AppModule -->
<g id="edge1" class="edge">
<title>AppComponent&#45;&gt;AppModule</title>
<path fill="none" stroke="#000000" d="M796,-122.2921C796,-144.2057 796,-178 796,-178 796,-178 509.7844,-178 509.7844,-178"/>
<polygon fill="#000000" stroke="#000000" points="509.7845,-174.5001 499.7844,-178 509.7844,-181.5001 509.7845,-174.5001"/>
</g>
<!-- AppComponent  -->
<g id="node9" class="node">
<title>AppComponent </title>
<polygon fill="#80b1d3" stroke="#000000" points="512.439,-252 403.561,-252 403.561,-216 512.439,-216 512.439,-252"/>
<text text-anchor="middle" x="458" y="-229.8" font-family="Times,serif" font-size="14.00" fill="#000000">AppComponent </text>
</g>
<!-- AppModule&#45;&gt;AppComponent  -->
<g id="edge8" class="edge">
<title>AppModule&#45;&gt;AppComponent </title>
<path fill="none" stroke="#000000" stroke-dasharray="1,5" d="M458,-187.1061C458,-187.1061 458,-205.991 458,-205.991"/>
<polygon fill="#000000" stroke="#000000" points="454.5001,-205.9909 458,-215.991 461.5001,-205.991 454.5001,-205.9909"/>
</g>
<!-- CoreModule -->
<g id="node3" class="node">
<title>CoreModule</title>
<polygon fill="#8dd3c7" stroke="#000000" points="719.2619,-122 716.2619,-126 695.2619,-126 692.2619,-122 632.7381,-122 632.7381,-86 719.2619,-86 719.2619,-122"/>
<text text-anchor="middle" x="676" y="-99.8" font-family="Times,serif" font-size="14.00" fill="#000000">CoreModule</text>
</g>
<!-- CoreModule&#45;&gt;AppModule -->
<g id="edge2" class="edge">
<title>CoreModule&#45;&gt;AppModule</title>
<path fill="none" stroke="#000000" d="M676,-122.1061C676,-141.3391 676,-169 676,-169 676,-169 509.7747,-169 509.7747,-169"/>
<polygon fill="#000000" stroke="#000000" points="509.7747,-165.5001 499.7747,-169 509.7746,-172.5001 509.7747,-165.5001"/>
</g>
<!-- HomeModule -->
<g id="node4" class="node">
<title>HomeModule</title>
<polygon fill="#8dd3c7" stroke="#000000" points="614.7619,-122 611.7619,-126 590.7619,-126 587.7619,-122 521.2381,-122 521.2381,-86 614.7619,-86 614.7619,-122"/>
<text text-anchor="middle" x="568" y="-99.8" font-family="Times,serif" font-size="14.00" fill="#000000">HomeModule</text>
</g>
<!-- HomeModule&#45;&gt;AppModule -->
<g id="edge3" class="edge">
<title>HomeModule&#45;&gt;AppModule</title>
<path fill="none" stroke="#000000" d="M568,-122.027C568,-138.3976 568,-160 568,-160 568,-160 509.9001,-160 509.9001,-160"/>
<polygon fill="#000000" stroke="#000000" points="509.9001,-156.5001 499.9001,-160 509.9,-163.5001 509.9001,-156.5001"/>
</g>
<!-- ItemsModule -->
<g id="node5" class="node">
<title>ItemsModule</title>
<polygon fill="#8dd3c7" stroke="#000000" points="503.1515,-122 500.1515,-126 479.1515,-126 476.1515,-122 412.8485,-122 412.8485,-86 503.1515,-86 503.1515,-122"/>
<text text-anchor="middle" x="458" y="-99.8" font-family="Times,serif" font-size="14.00" fill="#000000">ItemsModule</text>
</g>
<!-- ItemsModule&#45;&gt;AppModule -->
<g id="edge4" class="edge">
<title>ItemsModule&#45;&gt;AppModule</title>
<path fill="none" stroke="#000000" d="M458,-122.1061C458,-122.1061 458,-140.991 458,-140.991"/>
<polygon fill="#000000" stroke="#000000" points="454.5001,-140.9909 458,-150.991 461.5001,-140.991 454.5001,-140.9909"/>
</g>
<!-- LoginModule -->
<g id="node6" class="node">
<title>LoginModule</title>
<polygon fill="#8dd3c7" stroke="#000000" points="394.493,-122 391.493,-126 370.493,-126 367.493,-122 301.507,-122 301.507,-86 394.493,-86 394.493,-122"/>
<text text-anchor="middle" x="348" y="-99.8" font-family="Times,serif" font-size="14.00" fill="#000000">LoginModule</text>
</g>
<!-- LoginModule&#45;&gt;AppModule -->
<g id="edge5" class="edge">
<title>LoginModule&#45;&gt;AppModule</title>
<path fill="none" stroke="#000000" d="M348,-122.027C348,-138.3976 348,-160 348,-160 348,-160 406.0999,-160 406.0999,-160"/>
<polygon fill="#000000" stroke="#000000" points="406.1,-163.5001 416.0999,-160 406.0999,-156.5001 406.1,-163.5001"/>
</g>
<!-- PageNotFoundModule -->
<g id="node7" class="node">
<title>PageNotFoundModule</title>
<polygon fill="#8dd3c7" stroke="#000000" points="283.5421,-122 280.5421,-126 259.5421,-126 256.5421,-122 140.4579,-122 140.4579,-86 283.5421,-86 283.5421,-122"/>
<text text-anchor="middle" x="212" y="-99.8" font-family="Times,serif" font-size="14.00" fill="#000000">PageNotFoundModule</text>
</g>
<!-- PageNotFoundModule&#45;&gt;AppModule -->
<g id="edge6" class="edge">
<title>PageNotFoundModule&#45;&gt;AppModule</title>
<path fill="none" stroke="#000000" d="M212,-122.1061C212,-141.3391 212,-169 212,-169 212,-169 406.2695,-169 406.2695,-169"/>
<polygon fill="#000000" stroke="#000000" points="406.2695,-172.5001 416.2695,-169 406.2694,-165.5001 406.2695,-172.5001"/>
</g>
<!-- SharedModule -->
<g id="node8" class="node">
<title>SharedModule</title>
<polygon fill="#8dd3c7" stroke="#000000" points="122.4231,-122 119.4231,-126 98.4231,-126 95.4231,-122 23.5769,-122 23.5769,-86 122.4231,-86 122.4231,-122"/>
<text text-anchor="middle" x="73" y="-99.8" font-family="Times,serif" font-size="14.00" fill="#000000">SharedModule</text>
</g>
<!-- SharedModule&#45;&gt;AppModule -->
<g id="edge7" class="edge">
<title>SharedModule&#45;&gt;AppModule</title>
<path fill="none" stroke="#000000" d="M73,-122.2921C73,-144.2057 73,-178 73,-178 73,-178 406.0654,-178 406.0654,-178"/>
<polygon fill="#000000" stroke="#000000" points="406.0654,-181.5001 416.0654,-178 406.0653,-174.5001 406.0654,-181.5001"/>
</g>
</g>
</svg>
